<svg image-rendering="auto" baseProfile="basic" version="1.1" x="0px" y="0px" width="30" height="40" xmlns="http://www.w3.org/2000/svg" xmlns:xlink="http://www.w3.org/1999/xlink" style="margin-top: -18px;position: fixed;top: 2px;"><g id="Scene-1" overflow="visible"><g id="pautina" transform="matrix(1 0 0 1.217 15 -2.2)"><animateTransform attributeName="transform" additive="replace" type="translate" repeatCount="indefinite" dur="8.333s" keyTimes="0;.055;.105;.16;.215;.27;.32;.375;.435;.70999;.88;.95999;.995;1" values="15,-2.211;15.097,-2.266;15,-2.211;15.052,-2.207;15,-2.211;15.1,-2.205;15,-2.211;15.105,-2.265;15,-2.211;15,-2.211;15,-9.8;15,-9.8;15,-2.211;15,-2.211" keySplines=".25 .5 .5 1;.25 .5 .5 1;.25 .5 .5 1;.25 .5 .5 1;.25 .5 .5 1;.25 .5 .5 1;.25 .5 .5 1;.25 .5 .5 1;.1 .1 .9 .9;0 0 1 1;.1 .1 .9 .9;0 0 1 1;.1 .1 .9 .9" calcMode="spline"></animateTransform><animateTransform attributeName="transform" additive="sum" type="rotate" repeatCount="indefinite" dur="8.333s" keyTimes="0;.055;.105;.16;.215;.27;.32;.375;.435;1" values="0,0,0;-2.986,0,0;0,0,0;2.215,0,0;0,0,0;-2.952,0,0;0,0,0;2.723,0,0;0,0,0;0,0,0" keySplines=".25 .5 .5 1;.25 .5 .5 1;.25 .5 .5 1;.25 .5 .5 1;.25 .5 .5 1;.25 .5 .5 1;.25 .5 .5 1;.25 .5 .5 1;.1 .1 .9 .9" calcMode="spline"></animateTransform><animateTransform attributeName="transform" additive="sum" type="skewX" repeatCount="indefinite" dur="8.333s" keyTimes="0;.055;.105;.16;.215;.27;.32;.375;.435;1" values="0;-.001;0;.001;0;-.001;0;.001;0;0" keySplines=".25 .5 .5 1;.25 .5 .5 1;.25 .5 .5 1;.25 .5 .5 1;.25 .5 .5 1;.25 .5 .5 1;.25 .5 .5 1;.25 .5 .5 1;.1 .1 .9 .9" calcMode="spline"></animateTransform><animateTransform attributeName="transform" additive="sum" type="scale" repeatCount="indefinite" dur="8.333s" keyTimes="0;.70999;.88;.95999;.995;1" values="1,1.217;1,1.217;1,1;1,1;1,1.217;1,1.217" keySplines=".25 .5 .5 1;0 0 1 1;.1 .1 .9 .9;0 0 1 1;.1 .1 .9 .9" calcMode="spline"></animateTransform><animateTransform attributeName="transform" additive="sum" type="translate" repeatCount="indefinite" dur="8.333s" keyTimes="0;.055;.105;.16;.215;.27;.32;.375;.435;.70999;.88;.95999;.995;1" values="0,.05;-.1,.05;0,.05;-.1,.05;0,.05;-.1,0;0,.05;-.15,.1;0,.05;0,.05;0,0;0,0;0,.05;0,.05" keySplines=".25 .5 .5 1;.25 .5 .5 1;.25 .5 .5 1;.25 .5 .5 1;.25 .5 .5 1;.25 .5 .5 1;.25 .5 .5 1;.25 .5 .5 1;.1 .1 .9 .9;0 0 1 1;.1 .1 .9 .9;0 0 1 1;.1 .1 .9 .9" calcMode="spline"></animateTransform><path id="Layer55_0_1_STROKES" stroke="#000" stroke-width=".4" stroke-linejoin="round" stroke-linecap="round" fill="none" d="M.2 .05L.15 22.35"></path></g><g id="spider2" transform="matrix(.836 0 0 .836 4.2 23.4)"><animateTransform attributeName="transform" additive="replace" type="translate" repeatCount="indefinite" dur="8.333s" keyTimes="0;.055;.105;.16;.215;.27;.32;.375;.435;.68999;.88;.94499;.995;1" values="15.06,31.46;17.73,29.37;15.06,31.46;13.094,30.08;15.06,31.46;17.73,29.37;15.06,31.46;13.094,30.08;15.06,31.46;15.06,31.46;15.06,9.06;15.06,9.06;15.06,31.46;15.06,31.46" keySplines=".25 .5 .5 1;.5 0 .75 .5;.25 .5 .5 1;.5 0 .75 .5;.25 .5 .5 1;.5 0 .75 .5;.25 .5 .5 1;.5 0 .75 .5;.1 .1 .9 .9;0 0 1 1;.1 .1 .9 .9;.5 0 .75 .5;.25 .5 .5 1" calcMode="spline"></animateTransform><animateTransform attributeName="transform" additive="sum" type="rotate" repeatCount="indefinite" dur="8.333s" keyTimes="0;.055;.105;.16;.215;.27;.32;.375;.435;1" values="0,0,0;-13.216,0,0;0,0,0;22.669,0,0;0,0,0;-13.216,0,0;0,0,0;22.669,0,0;0,0,0;0,0,0" keySplines=".25 .5 .5 1;.5 0 .75 .5;.25 .5 .5 1;.5 0 .75 .5;.25 .5 .5 1;.5 0 .75 .5;.25 .5 .5 1;.5 0 .75 .5;.1 .1 .9 .9" calcMode="spline"></animateTransform><animateTransform attributeName="transform" additive="sum" type="scale" repeatCount="indefinite" dur="8.333s" keyTimes="0;.055;.105;.16;.215;.27;.32;.375;.435;1" values=".836,.836;.835,.835;.836,.836;.835,.835;.836,.836;.835,.835;.836,.836;.835,.835;.836,.836;.836,.836" keySplines=".25 .5 .5 1;.5 0 .75 .5;.25 .5 .5 1;.5 0 .75 .5;.25 .5 .5 1;.5 0 .75 .5;.25 .5 .5 1;.5 0 .75 .5;.1 .1 .9 .9" calcMode="spline"></animateTransform><animateTransform attributeName="transform" additive="sum" type="translate" repeatCount="indefinite" dur="8.333s" keyTimes="0;.055;.105;.16;.215;.27;.32;.375;.435;1" values="-13.05,-9.7;-13,-9.8;-13.05,-9.7;-13.25,-9.9;-13.05,-9.7;-13,-9.8;-13.05,-9.7;-13.25,-9.9;-13.05,-9.7;-13.05,-9.7" keySplines=".25 .5 .5 1;.5 0 .75 .5;.25 .5 .5 1;.5 0 .75 .5;.25 .5 .5 1;.5 0 .75 .5;.25 .5 .5 1;.5 0 .75 .5;.1 .1 .9 .9" calcMode="spline"></animateTransform><g display="none"><path id="Layer54_0_1_STROKES" stroke="#000" stroke-width="1" stroke-linejoin="round" stroke-linecap="round" fill="none" d="M17.2 14L19.55 14.05Q21.95 14.35 22.4 15.35 22.8 16.35 21.2 18.15 20.45 19.05 19.55 19.75"></path><animate attributeName="display" repeatCount="indefinite" dur="0.375s" keyTimes="0;.889;1" values="none;inline;inline"></animate></g><g display="none"><path id="Layer53_0_1_STROKES" stroke="#000" stroke-width="1" stroke-linejoin="round" stroke-linecap="round" fill="none" d="M17.2 14.05L19.85 14.1Q22.5 14.35 22.75 15.3 23.25 17.1 19.4 19.2"></path><animate attributeName="display" repeatCount="indefinite" dur="0.375s" keyTimes="0;.778;.889;1" values="none;inline;none;none"></animate></g><g display="none"><path id="Layer52_0_1_STROKES" stroke="#000" stroke-width="1" stroke-linejoin="round" stroke-linecap="round" fill="none" d="M17.15 14.05L19.85 14.05Q22.6 14.2 23 15.15 23.3 15.8 21.7 17.1 20.25 18.15 19.15 18.55"></path><animate attributeName="display" repeatCount="indefinite" dur="0.375s" keyTimes="0;.667;.778;1" values="none;inline;none;none"></animate></g><g display="none"><path id="Layer51_0_1_STROKES" stroke="#000" stroke-width="1" stroke-linejoin="round" stroke-linecap="round" fill="none" d="M17.2 14.05L20.2 14.1Q23.25 14.3 23.4 15.05 23.65 16.2 21.7 17.1 21.15 17.35 19.05 17.95"></path><animate attributeName="display" repeatCount="indefinite" dur="0.375s" keyTimes="0;.556;.667;1" values="none;inline;none;none"></animate></g><g display="none"><path id="Layer50_0_1_STROKES" stroke="#000" stroke-width="1" stroke-linejoin="round" stroke-linecap="round" fill="none" d="M17.2 14.05L20.25 13.9Q23.35 13.95 23.75 14.95 24.15 15.95 21.55 16.75L18.9 17.35"></path><animate attributeName="display" repeatCount="indefinite" dur="0.375s" keyTimes="0;.444;.556;1" values="none;inline;none;none"></animate></g><g display="none"><path id="Layer49_0_1_STROKES" stroke="#000" stroke-width="1" stroke-linejoin="round" stroke-linecap="round" fill="none" d="M17.2 14.05L20.15 13.85Q23.1 13.85 23.4 14.95 23.6 15.7 21.8 16.7 20.55 17.35 19.3 17.7"></path><animate attributeName="display" repeatCount="indefinite" dur="0.375s" keyTimes="0;.333;.444;1" values="none;inline;none;none"></animate></g><g display="none"><path id="Layer48_0_1_STROKES" stroke="#000" stroke-width="1" stroke-linejoin="round" stroke-linecap="round" fill="none" d="M17.15 14.05L19.85 14.1Q22.65 14.35 23 15.05 23.4 15.9 21.85 16.95 20.85 17.6 19.6 18.05"></path><animate attributeName="display" repeatCount="indefinite" dur="0.375s" keyTimes="0;.222;.333;1" values="none;inline;none;none"></animate></g><g display="none"><path id="Layer47_0_1_STROKES" stroke="#000" stroke-width="1" stroke-linejoin="round" stroke-linecap="round" fill="none" d="M17.2 14L19.9 14.05Q22.65 14.25 22.75 15.25 22.95 17 19.95 18.35"></path><animate attributeName="display" repeatCount="indefinite" dur="0.375s" keyTimes="0;.111;.222;1" values="none;inline;none;none"></animate></g><g><path id="Layer46_0_1_STROKES" stroke="#000" stroke-width="1" stroke-linejoin="round" stroke-linecap="round" fill="none" d="M17.2 14L19.55 14.05Q21.95 14.35 22.4 15.35 22.8 16.35 21.6 17.6 21 18.25 20.3 18.7"></path><animate attributeName="display" repeatCount="indefinite" dur="0.375s" keyTimes="0;.111;1" values="inline;none;none"></animate></g><g display="none"><path id="Layer45_0_1_STROKES" stroke="#000" stroke-width="1" stroke-linejoin="round" stroke-linecap="round" fill="none" d="M17.7 8.25L19.4 7.45Q21.45 6.55 23.2 6.25 25.35 5.9 27.35 6.65 28.35 7 28.9 7.45"></path><animate attributeName="display" repeatCount="indefinite" dur="0.375s" keyTimes="0;.889;1" values="none;inline;inline"></animate></g><g display="none"><path id="Layer44_0_1_STROKES" stroke="#000" stroke-width="1" stroke-linejoin="round" stroke-linecap="round" fill="none" d="M17.8 8.35L19.75 7.2Q22 6 23.65 5.85 25.65 5.7 26.95 6.65 27.6 7.15 27.85 7.65"></path><animate attributeName="display" repeatCount="indefinite" dur="0.375s" keyTimes="0;.778;.889;1" values="none;inline;none;none"></animate></g><g display="none"><path id="Layer43_0_1_STROKES" stroke="#000" stroke-width="1" stroke-linejoin="round" stroke-linecap="round" fill="none" d="M17.85 8.4L20.05 6.95Q22.55 5.5 24.05 5.5 25.9 5.5 26.55 6.7 26.9 7.25 26.85 7.85"></path><animate attributeName="display" repeatCount="indefinite" dur="0.375s" keyTimes="0;.667;.778;1" values="none;inline;none;none"></animate></g><g display="none"><path id="Layer42_0_1_STROKES" stroke="#000" stroke-width="1" stroke-linejoin="round" stroke-linecap="round" fill="none" d="M17.95 8.5L20.4 6.7Q23.05 4.95 24.5 5.1 26.2 5.3 26.15 6.7 26.15 7.4 25.8 8"></path><animate attributeName="display" repeatCount="indefinite" dur="0.375s" keyTimes="0;.556;.667;1" values="none;inline;none;none"></animate></g><g display="none"><path id="Layer41_0_1_STROKES" stroke="#000" stroke-width="1" stroke-linejoin="round" stroke-linecap="round" fill="none" d="M18 8.55L20.7 6.45Q23.6 4.4 24.9 4.7 26.45 5.1 25.75 6.7 25.4 7.5 24.75 8.2"></path><animate attributeName="display" repeatCount="indefinite" dur="0.375s" keyTimes="0;.444;.556;1" values="none;inline;none;none"></animate></g><g display="none"><path id="Layer40_0_1_STROKES" stroke="#000" stroke-width="1" stroke-linejoin="round" stroke-linecap="round" fill="none" d="M17.95 8.5L20.35 6.5Q23.05 4.5 24.45 4.65 26.15 4.85 26.05 6.35 26 7.05 25.65 7.75"></path><animate attributeName="display" repeatCount="indefinite" dur="0.375s" keyTimes="0;.333;.444;1" values="none;inline;none;none"></animate></g><g display="none"><path id="Layer39_0_1_STROKES" stroke="#000" stroke-width="1" stroke-linejoin="round" stroke-linecap="round" fill="none" d="M17.85 8.4L20.05 6.5Q22.45 4.6 24 4.6 25.85 4.6 26.35 5.95 26.65 6.65 26.55 7.3"></path><animate attributeName="display" repeatCount="indefinite" dur="0.375s" keyTimes="0;.222;.333;1" values="none;inline;none;none"></animate></g><g display="none"><path id="Layer38_0_1_STROKES" stroke="#000" stroke-width="1" stroke-linejoin="round" stroke-linecap="round" fill="none" d="M17.8 8.35L19.7 6.55Q21.9 4.65 23.5 4.5 25.5 4.35 26.65 5.6 27.25 6.2 27.4 6.8"></path><animate attributeName="display" repeatCount="indefinite" dur="0.375s" keyTimes="0;.111;.222;1" values="none;inline;none;none"></animate></g><g><path id="Layer37_0_1_STROKES" stroke="#000" stroke-width="1" stroke-linejoin="round" stroke-linecap="round" fill="none" d="M17.7 8.25L19.35 6.55Q21.3 4.75 23.05 4.45 25.2 4.1 26.95 5.2 27.85 5.75 28.3 6.35"></path><animate attributeName="display" repeatCount="indefinite" dur="0.375s" keyTimes="0;.111;1" values="inline;none;none"></animate></g><g display="none"><path id="Layer36_0_1_STROKES" stroke="#000" stroke-width="1" stroke-linejoin="round" stroke-linecap="round" fill="none" d="M18.5 11.25L20.2 10.1Q22.2 9.05 23.65 9.7 24.7 10.15 25.25 12.3 25.55 13.4 25.65 14.35"></path><animate attributeName="display" repeatCount="indefinite" dur="0.375s" keyTimes="0;.889;1" values="none;inline;inline"></animate></g><g display="none"><path id="Layer35_0_1_STROKES" stroke="#000" stroke-width="1" stroke-linejoin="round" stroke-linecap="round" fill="none" d="M18.5 11.3L20.4 10.35Q22.75 9.45 23.95 9.85 26 10.5 26.7 14.05"></path><animate attributeName="display" repeatCount="indefinite" dur="0.375s" keyTimes="0;.778;.889;1" values="none;inline;none;none"></animate></g><g display="none"><path id="Layer34_0_1_STROKES" stroke="#000" stroke-width="1" stroke-linejoin="round" stroke-linecap="round" fill="none" d="M18.5 11.3L20.85 10.45Q23.55 9.6 25 10.1 27.1 10.75 27.7 13.65"></path><animate attributeName="display" repeatCount="indefinite" dur="0.375s" keyTimes="0;.667;.778;1" values="none;inline;none;none"></animate></g><g display="none"><path id="Layer33_0_1_STROKES" stroke="#000" stroke-width="1" stroke-linejoin="round" stroke-linecap="round" fill="none" d="M18.5 11.3L21 10.65Q23.9 9.95 25.3 10.25 26.9 10.55 27.9 11.8 28.45 12.5 28.7 13.2"></path><animate attributeName="display" repeatCount="indefinite" dur="0.375s" keyTimes="0;.556;.667;1" values="none;inline;none;none"></animate></g><g display="none"><path id="Layer32_0_1_STROKES" stroke="#000" stroke-width="1" stroke-linejoin="round" stroke-linecap="round" fill="none" d="M18.45 11.3L21.4 10.75Q24.65 10.2 26.25 10.4 28.45 10.65 28.7 12 28.85 12.65 28.5 13.25"></path><animate attributeName="display" repeatCount="indefinite" dur="0.375s" keyTimes="0;.444;.556;1" values="none;inline;none;none"></animate></g><g display="none"><path id="Layer31_0_1_STROKES" stroke="#000" stroke-width="1" stroke-linejoin="round" stroke-linecap="round" fill="none" d="M18.5 11.25L21.05 10.55Q23.9 9.9 25.35 10.2 26.75 10.5 27.8 11.8 28.6 12.7 28.7 13.2"></path><animate attributeName="display" repeatCount="indefinite" dur="0.375s" keyTimes="0;.333;.444;1" values="none;inline;none;none"></animate></g><g display="none"><path id="Layer30_0_1_STROKES" stroke="#000" stroke-width="1" stroke-linejoin="round" stroke-linecap="round" fill="none" d="M18.5 11.3L20.85 10.45Q23.65 9.55 25 10.1 27.15 11 27.7 13.65"></path><animate attributeName="display" repeatCount="indefinite" dur="0.375s" keyTimes="0;.222;.333;1" values="none;inline;none;none"></animate></g><g display="none"><path id="Layer29_0_1_STROKES" stroke="#000" stroke-width="1" stroke-linejoin="round" stroke-linecap="round" fill="none" d="M18.5 11.25L20.35 10.3Q22.85 9.4 23.95 9.8 26 10.5 26.7 13.95"></path><animate attributeName="display" repeatCount="indefinite" dur="0.375s" keyTimes="0;.111;.222;1" values="none;inline;none;none"></animate></g><g><path id="Layer28_0_1_STROKES" stroke="#000" stroke-width="1" stroke-linejoin="round" stroke-linecap="round" fill="none" d="M18.5 11.25L20.2 10.1Q22.2 9.05 23.65 9.7 24.7 10.15 25.25 12.3 25.55 13.4 25.65 14.35"></path><animate attributeName="display" repeatCount="indefinite" dur="0.375s" keyTimes="0;.111;1" values="inline;none;none"></animate></g><g display="none"><path id="Layer27_0_1_STROKES" stroke="#000" stroke-width="1" stroke-linejoin="round" stroke-linecap="round" fill="none" d="M8.1 8.45Q7.6 7.05 6.7 5.8 4.8 3.2 2.6 3.75 .95 4.15 .15 5.4 -.25 6 -.3 6.55"></path><animate attributeName="display" repeatCount="indefinite" dur="0.375s" keyTimes="0;.889;1" values="none;inline;inline"></animate></g><g display="none"><path id="Layer26_0_1_STROKES" stroke="#000" stroke-width="1" stroke-linejoin="round" stroke-linecap="round" fill="none" d="M-1.2 6.75Q-1.05 6.25 -.55 5.75 .6 4.65 2.1 4.4 5.15 4.85 6.4 6.2 7.4 7.3 8.15 8.55"></path><animate attributeName="display" repeatCount="indefinite" dur="0.375s" keyTimes="0;.778;.889;1" values="none;inline;none;none"></animate></g><g display="none"><path id="Layer25_0_1_STROKES" stroke="#000" stroke-width="1" stroke-linejoin="round" stroke-linecap="round" fill="none" d="M-2.1 6.95Q-1.9 6.5 -1.25 6.1 .05 5.2 1.55 5.05 4.65 5.5 6.05 6.65 7.15 7.5 8.1 8.6"></path><animate attributeName="display" repeatCount="indefinite" dur="0.375s" keyTimes="0;.667;.778;1" values="none;inline;none;none"></animate></g><g display="none"><path id="Layer24_0_1_STROKES" stroke="#000" stroke-width="1" stroke-linejoin="round" stroke-linecap="round" fill="none" d="M-2.95 7.1Q-2.65 6.75 -1.9 6.4 -.45 5.75 1.1 5.7 4.3 6.15 5.75 7.05 6.95 7.75 8.2 8.7"></path><animate attributeName="display" repeatCount="indefinite" dur="0.375s" keyTimes="0;.556;.667;1" values="none;inline;none;none"></animate></g><g display="none"><path id="Layer23_0_1_STROKES" stroke="#000" stroke-width="1" stroke-linejoin="round" stroke-linecap="round" fill="none" d="M8.2 8.75Q5.05 7 2.35 6.55 -.25 6.1 -2.3 6.65 -3.35 6.95 -3.85 7.3"></path><animate attributeName="display" repeatCount="indefinite" dur="0.375s" keyTimes="0;.444;.556;1" values="none;inline;none;none"></animate></g><g display="none"><path id="Layer22_0_1_STROKES" stroke="#000" stroke-width="1" stroke-linejoin="round" stroke-linecap="round" fill="none" d="M-3.05 6.7Q-2.55 6.35 -1.6 6 .15 5.3 2 5.4 4.45 5.9 5.95 6.95 7.15 7.65 8.3 8.6"></path><animate attributeName="display" repeatCount="indefinite" dur="0.375s" keyTimes="0;.333;.444;1" values="none;inline;none;none"></animate></g><g display="none"><path id="Layer21_0_1_STROKES" stroke="#000" stroke-width="1" stroke-linejoin="round" stroke-linecap="round" fill="none" d="M-2.15 6.15Q-1.7 5.7 -.9 5.3 .9 4.4 2.65 4.45 5.1 5 6.5 6.35 7.55 7.35 8.45 8.4"></path><animate attributeName="display" repeatCount="indefinite" dur="0.375s" keyTimes="0;.222;.333;1" values="none;inline;none;none"></animate></g><g display="none"><path id="Layer20_0_1_STROKES" stroke="#000" stroke-width="1" stroke-linejoin="round" stroke-linecap="round" fill="none" d="M-1.4 5.55Q-1 5.1 -.25 4.65 1.5 3.45 3.25 3.45 5.6 4.1 6.9 5.8 7.8 7 8.45 8.25"></path><animate attributeName="display" repeatCount="indefinite" dur="0.375s" keyTimes="0;.111;.222;1" values="none;inline;none;none"></animate></g><g><path id="Layer19_0_1_STROKES" stroke="#000" stroke-width="1" stroke-linejoin="round" stroke-linecap="round" fill="none" d="M8.55 8.05Q8.15 6.65 7.35 5.2 5.75 2.4 3.85 2.45 2.15 2.5 .6 3.75 -.15 4.35 -.6 4.95"></path><animate attributeName="display" repeatCount="indefinite" dur="0.375s" keyTimes="0;.111;1" values="inline;none;none"></animate></g><g display="none"><path id="Layer18_0_1_STROKES" stroke="#000" stroke-width="1" stroke-linejoin="round" stroke-linecap="round" fill="none" d="M8.15 10.95Q4.5 8.85 3.1 8.9 1.7 8.95 .9 11.25 .5 12.4 .35 13.5"></path><animate attributeName="display" repeatCount="indefinite" dur="0.375s" keyTimes="0;.889;1" values="none;inline;inline"></animate></g><g display="none"><path id="Layer17_0_1_STROKES" stroke="#000" stroke-width="1" stroke-linejoin="round" stroke-linecap="round" fill="none" d="M-.2 13.5Q.05 12.45 .55 11.4 1.65 9.3 3.3 9.25 4.7 9.2 8.2 11"></path><animate attributeName="display" repeatCount="indefinite" dur="0.375s" keyTimes="0;.778;.889;1" values="none;inline;none;none"></animate></g><g display="none"><path id="Layer16_0_1_STROKES" stroke="#000" stroke-width="1" stroke-linejoin="round" stroke-linecap="round" fill="none" d="M.9 13.75Q.6 12.8 .65 11.85 .85 9.95 2.7 9.7 4.2 9.55 8.2 11"></path><animate attributeName="display" repeatCount="indefinite" dur="0.375s" keyTimes="0;.667;.778;1" values="none;inline;none;none"></animate></g><g display="none"><path id="Layer15_0_1_STROKES" stroke="#000" stroke-width="1" stroke-linejoin="round" stroke-linecap="round" fill="none" d="M1.95 13.9Q1.2 13.15 .8 12.3 0 10.55 2.1 10.15 3.7 9.8 8.2 10.95"></path><animate attributeName="display" repeatCount="indefinite" dur="0.375s" keyTimes="0;.556;.667;1" values="none;inline;none;none"></animate></g><g display="none"><path id="Layer14_0_1_STROKES" stroke="#000" stroke-width="1" stroke-linejoin="round" stroke-linecap="round" fill="none" d="M8.2 11Q3.2 10.2 1.5 10.65 -.8 11.25 .9 12.8 1.75 13.55 3.05 14.2"></path><animate attributeName="display" repeatCount="indefinite" dur="0.375s" keyTimes="0;.444;.556;1" values="none;inline;none;none"></animate></g><g display="none"><path id="Layer13_0_1_STROKES" stroke="#000" stroke-width="1" stroke-linejoin="round" stroke-linecap="round" fill="none" d="M1.75 13.7Q.95 13 .55 12.2 -.2 10.55 1.85 10.1 3.5 9.75 8.15 11"></path><animate attributeName="display" repeatCount="indefinite" dur="0.375s" keyTimes="0;.333;.444;1" values="none;inline;none;none"></animate></g><g display="none"><path id="Layer12_0_1_STROKES" stroke="#000" stroke-width="1" stroke-linejoin="round" stroke-linecap="round" fill="none" d="M.55 13.25Q.25 12.45 .3 11.6 .45 9.85 2.3 9.55 3.85 9.3 8.2 11"></path><animate attributeName="display" repeatCount="indefinite" dur="0.375s" keyTimes="0;.222;.333;1" values="none;inline;none;none"></animate></g><g display="none"><path id="Layer11_0_1_STROKES" stroke="#000" stroke-width="1" stroke-linejoin="round" stroke-linecap="round" fill="none" d="M-.75 12.75Q-.55 11.85 0 10.95 1.1 9.15 2.7 8.95 4.2 8.8 8.2 11"></path><animate attributeName="display" repeatCount="indefinite" dur="0.375s" keyTimes="0;.111;.222;1" values="none;inline;none;none"></animate></g><g><path id="Layer10_0_1_STROKES" stroke="#000" stroke-width="1" stroke-linejoin="round" stroke-linecap="round" fill="none" d="M8.2 10.95Q4.5 8.3 3.1 8.35 1.7 8.4 -.3 10.3 -1.3 11.25 -2 12.2"></path><animate attributeName="display" repeatCount="indefinite" dur="0.375s" keyTimes="0;.111;1" values="inline;none;none"></animate></g><g display="none"><path id="Layer9_0_1_STROKES" stroke="#000" stroke-width="1" stroke-linejoin="round" stroke-linecap="round" fill="none" d="M8.8 13.95Q7.3 14 5.75 14.25 2.7 14.75 2.65 15.8 2.6 16.9 4.9 17.95 6 18.5 7.15 18.8"></path><animate attributeName="display" repeatCount="indefinite" dur="0.375s" keyTimes="0;.889;1" values="none;inline;inline"></animate></g><g display="none"><path id="Layer8_0_1_STROKES" stroke="#000" stroke-width="1" stroke-linejoin="round" stroke-linecap="round" fill="none" d="M6.8 19Q5.1 18.5 4.1 17.4 2.95 16.1 3.95 15.15 4.65 14.45 5.9 14.2 7.55 13.95 8.75 13.9"></path><animate attributeName="display" repeatCount="indefinite" dur="0.375s" keyTimes="0;.778;.889;1" values="none;inline;none;none"></animate></g><g display="none"><path id="Layer7_0_1_STROKES" stroke="#000" stroke-width="1" stroke-linejoin="round" stroke-linecap="round" fill="none" d="M6.85 18.75Q4.5 18 3.55 16.7 2.3 15 5.75 14.3L6.1 14.25Q7.9 14 8.8 13.95"></path><animate attributeName="display" repeatCount="indefinite" dur="0.375s" keyTimes="0;.667;.778;1" values="none;inline;none;none"></animate></g><g display="none"><path id="Layer6_0_1_STROKES" stroke="#000" stroke-width="1" stroke-linejoin="round" stroke-linecap="round" fill="none" d="M5.9 19.6Q4.05 18.45 3.6 16.85 3 14.8 6.05 14.15 7.25 13.9 8.75 13.9"></path><animate attributeName="display" repeatCount="indefinite" dur="0.375s" keyTimes="0;.556;.667;1" values="none;inline;none;none"></animate></g><g display="none"><path id="Layer5_0_1_STROKES" stroke="#000" stroke-width="1" stroke-linejoin="round" stroke-linecap="round" fill="none" d="M8.75 13.9Q7.7 13.8 6.6 14 4.35 14.4 4 15.9 3.7 17.1 4.5 18.7 4.85 19.5 5.3 20.05"></path><animate attributeName="display" repeatCount="indefinite" dur="0.375s" keyTimes="0;.444;.556;1" values="none;inline;none;none"></animate></g><g display="none"><path id="Layer4_0_1_STROKES" stroke="#000" stroke-width="1" stroke-linejoin="round" stroke-linecap="round" fill="none" d="M5.7 19.65Q4.8 18.85 4.45 17.9 4.1 16.85 4.5 15.85 5.05 14.6 6.6 14.15 7.15 14 8.7 13.9"></path><animate attributeName="display" repeatCount="indefinite" dur="0.375s" keyTimes="0;.333;.444;1" values="none;inline;none;none"></animate></g><g display="none"><path id="Layer3_0_1_STROKES" stroke="#000" stroke-width="1" stroke-linejoin="round" stroke-linecap="round" fill="none" d="M6.25 19.4Q4.9 18.15 4.35 16.9 3.5 14.8 6.05 14.2 7 14 8.8 13.9"></path><animate attributeName="display" repeatCount="indefinite" dur="0.375s" keyTimes="0;.222;.333;1" values="none;inline;none;none"></animate></g><g display="none"><path id="Layer2_0_1_STROKES" stroke="#000" stroke-width="1" stroke-linejoin="round" stroke-linecap="round" fill="none" d="M6.65 19.1Q3.2 17.25 3.35 15.75 3.45 14.7 5.7 14.25 7.2 14 8.7 13.9"></path><animate attributeName="display" repeatCount="indefinite" dur="0.375s" keyTimes="0;.111;.222;1" values="none;inline;none;none"></animate></g><g><path id="Layer1_0_1_STROKES" stroke="#000" stroke-width="1" stroke-linejoin="round" stroke-linecap="round" fill="none" d="M8.75 13.9Q7.25 13.95 5.7 14.2 2.65 14.7 2.6 15.75 2.55 16.85 4.85 17.9 5.95 18.45 7.1 18.75"></path><animate attributeName="display" repeatCount="indefinite" dur="0.375s" keyTimes="0;.111;1" values="inline;none;none"></animate></g><g id="body1" transform="matrix(.921 0 0 .921 6.2 3.05)"><animateTransform attributeName="transform" additive="replace" type="translate" repeatCount="indefinite" dur="0.375s" keyTimes="0;.111;.333;.444;.556;.778;.889;1" values="13.012,9.862;13.058,9.858;13.058,9.858;12,10.159;13.047,10.243;13.047,10.243;13.012,9.862;13.012,9.862"></animateTransform><animateTransform attributeName="transform" additive="sum" type="scale" repeatCount="indefinite" dur="0.375s" keyTimes="0;.333;.444;.778;.889;1" values=".921,.921;.921,.921;.966,.841;.966,.841;.921,.921;.921,.921"></animateTransform><animateTransform attributeName="transform" additive="sum" type="translate" repeatCount="indefinite" dur="0.375s" keyTimes="0;.111;.333;.444;.556;.778;.889;1" values="-7.45,-7.45;-7.5,-7.5;-7.5,-7.5;-7.4,-7.5;-7.45,-7.6;-7.45,-7.6;-7.45,-7.45;-7.45,-7.45"></animateTransform><path fill="#000" stroke="none" d="M12.8 12.65Q15 10.5 15 7.45 15 4.4 12.8 2.2 10.65 .05 7.6 .05 4.55 .05 2.35 2.2 .2 4.4 .2 7.45 .2 10.5 2.35 12.65 4.55 14.85 7.6 14.85 10.65 14.85 12.8 12.65Z"></path><g display="none" id="Layer62_0_FILL"><path fill="#000" stroke="none" d="M4.55 -3.3Q3 -3.3 1.85 -2.2 .75 -1.05 .75 .5 .75 2.05 1.85 3.15 3 4.3 4.55 4.3 5.072 4.3 5.55 4.15 6.461 4.038 7.15 3.35 7.403 3.096 7.55 2.8 7.730 2.980 7.9 3.15 9.05 4.3 10.6 4.3 12.15 4.3 13.25 3.15 14.4 2.05 14.4 .5 14.4 -1.05 13.25 -2.2 12.15 -3.3 10.6 -3.3 9.05 -3.3 7.9 -2.2 7.712 -2.004 7.55 -1.8 7.395 -2.004 7.2 -2.2 6.1 -3.3 4.55 -3.3M2.45 -1.6Q3.35 -2.45 4.65 -2.45 5.9 -2.45 6.8 -1.6 7.367 -1.032 7.6 -.35 7.812 -1.032 8.35 -1.6 9.25 -2.45 10.55 -2.45 11.8 -2.45 12.7 -1.6 13.65 -.65 13.65 .65 13.65 1.9 12.7 2.8 11.8 3.75 10.55 3.75 9.25 3.75 8.35 2.8 7.812 2.262 7.6 1.6 7.367 2.262 6.8 2.8 5.9 3.75 4.65 3.75 3.35 3.75 2.45 2.8 1.55 1.9 1.55 .65 1.55 -.65 2.45 -1.6Z"></path><path fill="#FFF" stroke="none" d="M4.65 -2.45Q3.35 -2.45 2.45 -1.6 1.55 -.65 1.55 .65 1.55 1.9 2.45 2.8 3.35 3.75 4.65 3.75 5.9 3.75 6.8 2.8 7.367 2.262 7.6 1.6 7.812 2.262 8.35 2.8 9.25 3.75 10.55 3.75 11.8 3.75 12.7 2.8 13.65 1.9 13.65 .65 13.65 -.65 12.7 -1.6 11.8 -2.45 10.55 -2.45 9.25 -2.45 8.35 -1.6 7.812 -1.032 7.6 -.35 7.367 -1.032 6.8 -1.6 5.9 -2.45 4.65 -2.45Z"></path><animate attributeName="display" repeatCount="indefinite" dur="1.208s" keyTimes="0;.379;1" values="none;inline;inline"></animate></g><g display="none" id="Layer60_0_FILL"><path fill="#000" stroke="none" d="M1.85 -2.2Q.967 -1.277 .8 -.1 .783 -.013 .75 .05L.75 .1Q.75 .165 .75 .2 .75 .361 .75 .5 .75 2.05 1.85 3.15 3 4.3 4.55 4.3 5.072 4.3 5.55 4.15 6.153 4.084 6.65 3.75 7.059 3.759 7.3 3.8 7.870 3.8 8.9 3.9 9.675 4.3 10.6 4.3 12.15 4.3 13.25 3.15 14.4 2.05 14.4 .5 14.4 -1.05 13.25 -2.2 12.15 -3.3 10.6 -3.3 9.05 -3.3 7.9 -2.2 7.712 -2.004 7.55 -1.8 7.395 -2.004 7.2 -2.2 6.1 -3.3 4.55 -3.3 3 -3.3 1.85 -2.2Z"></path><animate attributeName="display" repeatCount="indefinite" dur="1.208s" keyTimes="0;.207;.31;1" values="none;inline;none;none"></animate></g><g display="none" id="Layer59_0_FILL"><path fill="#000" stroke="none" d="M1.85 -2.2Q.967 -1.277 .8 -.1 .783 -.013 .75 .05L.75 .1Q.75 .165 .75 .2 .75 .361 .75 .5 .75 2.05 1.85 3.15 3 4.3 4.55 4.3 5.072 4.3 5.55 4.15 6.153 4.084 6.65 3.75 7.059 3.759 7.3 3.8 7.870 3.8 8.9 3.9 9.675 4.3 10.6 4.3 12.15 4.3 13.25 3.15 14.4 2.05 14.4 .5 14.4 -1.05 13.25 -2.2 12.15 -3.3 10.6 -3.3 9.05 -3.3 7.9 -2.2 7.712 -2.004 7.55 -1.8 7.395 -2.004 7.2 -2.2 6.1 -3.3 4.55 -3.3 3 -3.3 1.85 -2.2M6.05 -.35L7.05 -.05Q7.214 -.05 7.3 -.1 7.411 -.1 7.5 -.1L9.3 -.3 11.2 -.25 11.9 -.15 12.15 -.05 12.65 .05 13.55 .55Q13.370 .652 13.25 .8 13.043 .906 12.65 1.3 12.536 1.451 12.2 1.6 12.080 1.648 11.9 1.7L10.9 1.9 9.9 1.9Q9.1 1.9 8.65 1.8 7.864 1.707 7.6 1.7 7.616 1.650 7.6 1.6 7.580 1.655 7.55 1.7L7 1.85Q6.155 2.083 4.9 2.05 3.906 1.997 2.8 1.7 2.3 1.6 2.05 1.4 1.8 1.1 1.6 1L1.55 1Q1.55 .823 1.55 .65L1.55 .6Q1.682 .543 1.85 .4L3.65 -.1 5.7 -.4Q5.764 -.405 5.8 -.4L6.05 -.35Z"></path><path fill="#FFF" stroke="none" d="M7.05 -.05L6.05 -.35 5.8 -.4Q5.764 -.405 5.7 -.4L3.65 -.1 1.85 .4Q1.682 .543 1.55 .6L1.55 .65Q1.55 .823 1.55 1L1.6 1Q1.8 1.1 2.05 1.4 2.3 1.6 2.8 1.7 3.906 1.997 4.9 2.05 6.155 2.083 7 1.85L7.55 1.7Q7.580 1.655 7.6 1.6 7.616 1.650 7.6 1.7 7.864 1.707 8.65 1.8 9.1 1.9 9.9 1.9L10.9 1.9 11.9 1.7Q12.080 1.648 12.2 1.6 12.536 1.451 12.65 1.3 13.043 .906 13.25 .8 13.370 .652 13.55 .55L12.65 .05 12.15 -.05 11.9 -.15 11.2 -.25 9.3 -.3 7.5 -.1Q7.411 -.1 7.3 -.1 7.214 -.05 7.05 -.05Z"></path><animate attributeName="display" repeatCount="indefinite" dur="1.208s" keyTimes="0;.138;.207;1" values="none;inline;none;none"></animate></g><g display="none" id="Layer58_0_FILL"><path fill="#000" stroke="none" d="M1.85 -2.2Q.967 -1.277 .8 -.1 .783 -.013 .75 .05L.75 .1Q.75 .165 .75 .2 .75 .361 .75 .5 .75 2.05 1.85 3.15 3 4.3 4.55 4.3 5.072 4.3 5.55 4.15 6.461 4.038 7.15 3.35 7.403 3.096 7.55 2.8 7.730 2.980 7.9 3.15 9.05 4.3 10.6 4.3 12.15 4.3 13.25 3.15 14.4 2.05 14.4 .5 14.4 -1.05 13.25 -2.2 12.15 -3.3 10.6 -3.3 9.05 -3.3 7.9 -2.2 7.712 -2.004 7.55 -1.8 7.395 -2.004 7.2 -2.2 6.1 -3.3 4.55 -3.3 3 -3.3 1.85 -2.2M6.05 -.35L7.05 -.05Q7.214 -.05 7.3 -.1 7.411 -.1 7.5 -.1L9.3 -.3 11.2 -.25 11.9 -.15 12.15 -.05 12.65 .05 13.65 .6 13.65 .65Q13.65 1.9 12.7 2.8 11.8 3.75 10.55 3.75 9.25 3.75 8.35 2.8 7.812 2.262 7.6 1.6 7.367 2.262 6.8 2.8 5.9 3.75 4.65 3.75 3.35 3.75 2.45 2.8 1.55 1.9 1.55 .65L1.55 .6Q1.682 .543 1.85 .4L3.65 -.1 5.7 -.4Q5.764 -.405 5.8 -.4L6.05 -.35Z"></path><path fill="#FFF" stroke="none" d="M7.05 -.05L6.05 -.35 5.8 -.4Q5.764 -.405 5.7 -.4L3.65 -.1 1.85 .4Q1.682 .543 1.55 .6L1.55 .65Q1.55 1.9 2.45 2.8 3.35 3.75 4.65 3.75 5.9 3.75 6.8 2.8 7.367 2.262 7.6 1.6 7.812 2.262 8.35 2.8 9.25 3.75 10.55 3.75 11.8 3.75 12.7 2.8 13.65 1.9 13.65 .65L13.65 .6 12.65 .05 12.15 -.05 11.9 -.15 11.2 -.25 9.3 -.3 7.5 -.1Q7.411 -.1 7.3 -.1 7.214 -.05 7.05 -.05Z"></path><animate attributeName="display" repeatCount="indefinite" dur="1.208s" keyTimes="0;.069;.138;.31;.379;1" values="none;inline;none;inline;none;none"></animate></g><g id="Layer57_0_FILL"><path fill="#000" stroke="none" d="M4.55 -3.3Q3 -3.3 1.85 -2.2 .75 -1.05 .75 .5 .75 2.05 1.85 3.15 3 4.3 4.55 4.3 5.072 4.3 5.55 4.15 6.461 4.038 7.15 3.35 7.403 3.096 7.55 2.8 7.730 2.980 7.9 3.15 9.05 4.3 10.6 4.3 12.15 4.3 13.25 3.15 14.4 2.05 14.4 .5 14.4 -1.05 13.25 -2.2 12.15 -3.3 10.6 -3.3 9.05 -3.3 7.9 -2.2 7.712 -2.004 7.55 -1.8 7.395 -2.004 7.2 -2.2 6.1 -3.3 4.55 -3.3M2.45 -1.6Q3.35 -2.45 4.65 -2.45 5.9 -2.45 6.8 -1.6 7.367 -1.032 7.6 -.35 7.812 -1.032 8.35 -1.6 9.25 -2.45 10.55 -2.45 11.8 -2.45 12.7 -1.6 13.65 -.65 13.65 .65 13.65 1.9 12.7 2.8 11.8 3.75 10.55 3.75 9.25 3.75 8.35 2.8 7.812 2.262 7.6 1.6 7.367 2.262 6.8 2.8 5.9 3.75 4.65 3.75 3.35 3.75 2.45 2.8 1.55 1.9 1.55 .65 1.55 -.65 2.45 -1.6Z"></path><path fill="#FFF" stroke="none" d="M4.65 -2.45Q3.35 -2.45 2.45 -1.6 1.55 -.65 1.55 .65 1.55 1.9 2.45 2.8 3.35 3.75 4.65 3.75 5.9 3.75 6.8 2.8 7.367 2.262 7.6 1.6 7.812 2.262 8.35 2.8 9.25 3.75 10.55 3.75 11.8 3.75 12.7 2.8 13.65 1.9 13.65 .65 13.65 -.65 12.7 -1.6 11.8 -2.45 10.55 -2.45 9.25 -2.45 8.35 -1.6 7.812 -1.032 7.6 -.35 7.367 -1.032 6.8 -1.6 5.9 -2.45 4.65 -2.45Z"></path><animate attributeName="display" repeatCount="indefinite" dur="1.208s" keyTimes="0;.069;1" values="inline;none;none"></animate></g><path fill="#000" stroke="none" d="M6.1 -.85Q5.5 -.85 5.05 -.4 4.6 .05 4.6 .65 4.6 1.25 5.05 1.7 5.5 2.15 6.1 2.15 6.7 2.15 7.15 1.7 7.592 1.257 7.6 .75 7.607 1.257 8.05 1.7 8.5 2.15 9.1 2.15 9.7 2.15 10.15 1.7 10.6 1.25 10.6 .65 10.6 .05 10.15 -.4 9.7 -.85 9.1 -.85 8.5 -.85 8.05 -.4 7.607 .042 7.6 .6 7.592 .042 7.15 -.4 6.7 -.85 6.1 -.85Z"></path></g></g></g></svg>
